<?xml version="1.0" encoding="UTF-8" standalone="no"?>
<!-- Created with Inkscape (http://www.inkscape.org/) -->

<svg
   width="210mm"
   height="297mm"
   viewBox="0 0 210 297"
   version="1.1"
   id="svg115"
   inkscape:version="1.1.1 (3bf5ae0d25, 2021-09-20)"
   sodipodi:docname="sign.svg"
   xmlns:inkscape="http://www.inkscape.org/namespaces/inkscape"
   xmlns:sodipodi="http://sodipodi.sourceforge.net/DTD/sodipodi-0.dtd"
   xmlns="http://www.w3.org/2000/svg"
   xmlns:svg="http://www.w3.org/2000/svg">
  <sodipodi:namedview
     id="namedview117"
     pagecolor="#505050"
     bordercolor="#eeeeee"
     borderopacity="1"
     inkscape:pageshadow="0"
     inkscape:pageopacity="0"
     inkscape:pagecheckerboard="0"
     inkscape:document-units="mm"
     showgrid="false"
     inkscape:zoom="0.77771465"
     inkscape:cx="396.67505"
     inkscape:cy="561.25984"
     inkscape:window-width="2560"
     inkscape:window-height="1369"
     inkscape:window-x="-8"
     inkscape:window-y="-8"
     inkscape:window-maximized="1"
     inkscape:current-layer="layer1" />
  <defs
     id="defs112" />
  <g
     inkscape:label="Layer 1"
     inkscape:groupmode="layer"
     id="layer1">
    <path
       fill="#000000"
       d="m 85.365528,63.342288 c -0.28575,0.003 -0.57362,0.0164 -0.8599,0.0328 -2.28706,0.13282 -4.54025,0.74084 -5.95312,1.57957 -1.41182,0.83793 -1.85685,1.51341 -1.80182,2.53814 v 0.0661 l 0.20638,7.44961 15.86706,-0.33867 -0.23177,-8.42539 c -0.0392,-0.79745 -0.47784,-1.3626 -1.97644,-2.00898 -1.12289,-0.48525 -2.71039,-0.80539 -4.39843,-0.87683 a 16.233246,16.233246 0 0 0 -0.85196,-0.0167 z m 59.515372,15.13892 -114.135162,2.48021 0.3638,16.40416 40.91913,1.07527 -39.1996,2.571752 -0.76915,26.14348 0.37201,0.0828 2.13254,0.4879 -0.22304,2.17487 -1.82722,17.85144 113.647272,-2.45613 -1.47928,-16.5862 -37.14115,-0.96731 36.83529,-2.42253 -2.34871,-26.301432 -36.74401,-0.95885 39.96055,-2.62917 -0.3638,-16.95027 z m -49.916292,72.867842 -15.84193,0.3392 0.94324,33.32056 h 15.83373 l -0.93398,-33.65949 z"
       id="path52"
       style="stroke-width:0.264583" />
  </g>
</svg>
